REM DIRINDEX 1\2,1\3
REM DIRNAME folder01,folder02,folder03
TITLE ""
FILE "1161-1180.mp3" MP3
  TRACK 01 AUDIO
    TITLE "0:"
    INDEX 01 00:00:00
  TRACK 02 AUDIO
    TITLE "2:cjc039_1321"
    INDEX 01 00:00:25
  TRACK 03 AUDIO
    TITLE "0:"
    INDEX 01 00:01:38
  TRACK 04 AUDIO
    TITLE "3:cjc039_1322"
    INDEX 01 00:02:24
  TRACK 05 AUDIO
    TITLE "0:"
    INDEX 01 00:05:42
  TRACK 06 AUDIO
    TITLE "2:cjc039_1323"
    INDEX 01 00:07:21
  TRACK 07 AUDIO
    TITLE "0:"
    INDEX 01 00:08:38
  TRACK 08 AUDIO
    TITLE "3:cjc039_1324"
    INDEX 01 00:09:16
  TRACK 09 AUDIO
    TITLE "0:"
    INDEX 01 00:13:47
  TRACK 10 AUDIO
    TITLE "2:cjc039_1325"
    INDEX 01 00:15:23
  TRACK 11 AUDIO
    TITLE "0:"
    INDEX 01 00:16:28
  TRACK 12 AUDIO
    TITLE "3:cjc039_1326"
    INDEX 01 00:17:10
  TRACK 13 AUDIO
    TITLE "0:"
    INDEX 01 00:19:62
  TRACK 14 AUDIO
    TITLE "2:cjc039_1327"
    INDEX 01 00:21:41
  TRACK 15 AUDIO
    TITLE "0:"
    INDEX 01 00:22:58
  TRACK 16 AUDIO
    TITLE "3:cjc039_1328"
    INDEX 01 00:23:34
  TRACK 17 AUDIO
    TITLE "0:"
    INDEX 01 00:27:63
  TRACK 18 AUDIO
    TITLE "2:cjc039_1329"
    INDEX 01 00:29:40
  TRACK 19 AUDIO
    TITLE "0:"
    INDEX 01 00:30:48
  TRACK 20 AUDIO
    TITLE "3:cjc039_1330"
    INDEX 01 00:31:29
  TRACK 21 AUDIO
    TITLE "0:"
    INDEX 01 00:34:02
  TRACK 22 AUDIO
    TITLE "2:cjc039_1331"
    INDEX 01 00:35:55
  TRACK 23 AUDIO
    TITLE "0:"
    INDEX 01 00:36:72
  TRACK 24 AUDIO
    TITLE "3:cjc039_1332"
    INDEX 01 00:37:57
  TRACK 25 AUDIO
    TITLE "0:"
    INDEX 01 00:42:29
  TRACK 26 AUDIO
    TITLE "2:cjc039_1333"
    INDEX 01 00:44:07
  TRACK 27 AUDIO
    TITLE "0:"
    INDEX 01 00:45:18
  TRACK 28 AUDIO
    TITLE "3:cjc039_1334"
    INDEX 01 00:45:73
  TRACK 29 AUDIO
    TITLE "0:"
    INDEX 01 00:49:41
  TRACK 30 AUDIO
    TITLE "2:cjc039_1335"
    INDEX 01 00:51:18
  TRACK 31 AUDIO
    TITLE "0:"
    INDEX 01 00:52:43
  TRACK 32 AUDIO
    TITLE "3:cjc039_1336"
    INDEX 01 00:53:17
  TRACK 33 AUDIO
    TITLE "0:"
    INDEX 01 00:56:59
  TRACK 34 AUDIO
    TITLE "2:cjc039_1337"
    INDEX 01 00:58:34
  TRACK 35 AUDIO
    TITLE "0:"
    INDEX 01 00:59:36
  TRACK 36 AUDIO
    TITLE "3:cjc039_1338"
    INDEX 01 01:00:15
  TRACK 37 AUDIO
    TITLE "0:"
    INDEX 01 01:03:20
  TRACK 38 AUDIO
    TITLE "2:cjc039_1339"
    INDEX 01 01:04:74
  TRACK 39 AUDIO
    TITLE "0:"
    INDEX 01 01:06:26
  TRACK 40 AUDIO
    TITLE "3:cjc039_1340"
    INDEX 01 01:07:02
  TRACK 41 AUDIO
    TITLE "0:"
    INDEX 01 01:11:56
  TRACK 42 AUDIO
    TITLE "2:cjc039_1341"
    INDEX 01 01:13:30
  TRACK 43 AUDIO
    TITLE "0:"
    INDEX 01 01:14:33
  TRACK 44 AUDIO
    TITLE "3:cjc039_1342"
    INDEX 01 01:15:05
  TRACK 45 AUDIO
    TITLE "0:"
    INDEX 01 01:19:52
  TRACK 46 AUDIO
    TITLE "2:cjc039_1343"
    INDEX 01 01:21:27
  TRACK 47 AUDIO
    TITLE "0:"
    INDEX 01 01:22:39
  TRACK 48 AUDIO
    TITLE "3:cjc039_1344"
    INDEX 01 01:23:16
  TRACK 49 AUDIO
    TITLE "0:"
    INDEX 01 01:28:35
  TRACK 50 AUDIO
    TITLE "2:cjc039_1345"
    INDEX 01 01:30:11
  TRACK 51 AUDIO
    TITLE "0:"
    INDEX 01 01:31:22
  TRACK 52 AUDIO
    TITLE "3:cjc039_1346"
    INDEX 01 01:32:00
  TRACK 53 AUDIO
    TITLE "0:"
    INDEX 01 01:36:31
  TRACK 54 AUDIO
    TITLE "2:cjc039_1347"
    INDEX 01 01:38:06
  TRACK 55 AUDIO
    TITLE "0:"
    INDEX 01 01:39:23
  TRACK 56 AUDIO
    TITLE "3:cjc039_1348"
    INDEX 01 01:40:01
  TRACK 57 AUDIO
    TITLE "0:"
    INDEX 01 01:43:29
  TRACK 58 AUDIO
    TITLE "2:cjc039_1349"
    INDEX 01 01:45:04
  TRACK 59 AUDIO
    TITLE "0:"
    INDEX 01 01:46:23
  TRACK 60 AUDIO
    TITLE "3:cjc039_1350"
    INDEX 01 01:46:72
  TRACK 61 AUDIO
    TITLE "0:"
    INDEX 01 01:51:07
  TRACK 62 AUDIO
    TITLE "2:cjc039_1351"
    INDEX 01 01:52:53
  TRACK 63 AUDIO
    TITLE "0:"
    INDEX 01 01:53:74
  TRACK 64 AUDIO
    TITLE "3:cjc039_1352"
    INDEX 01 01:54:52
  TRACK 65 AUDIO
    TITLE "0:"
    INDEX 01 01:58:27
  TRACK 66 AUDIO
    TITLE "2:cjc039_1353"
    INDEX 01 02:00:04
  TRACK 67 AUDIO
    TITLE "0:"
    INDEX 01 02:01:17
  TRACK 68 AUDIO
    TITLE "3:cjc039_1354"
    INDEX 01 02:01:70
  TRACK 69 AUDIO
    TITLE "0:"
    INDEX 01 02:06:32
  TRACK 70 AUDIO
    TITLE "2:cjc039_1355"
    INDEX 01 02:08:09
  TRACK 71 AUDIO
    TITLE "0:"
    INDEX 01 02:09:28
  TRACK 72 AUDIO
    TITLE "3:cjc039_1356"
    INDEX 01 02:10:00
  TRACK 73 AUDIO
    TITLE "0:"
    INDEX 01 02:14:16
  TRACK 74 AUDIO
    TITLE "2:cjc039_1357"
    INDEX 01 02:15:66
  TRACK 75 AUDIO
    TITLE "0:"
    INDEX 01 02:17:04
  TRACK 76 AUDIO
    TITLE "3:cjc039_1358"
    INDEX 01 02:17:59
  TRACK 77 AUDIO
    TITLE "0:"
    INDEX 01 02:21:30
  TRACK 78 AUDIO
    TITLE "2:cjc039_1359"
    INDEX 01 02:23:07
  TRACK 79 AUDIO
    TITLE "0:"
    INDEX 01 02:24:34
  TRACK 80 AUDIO
    TITLE "3:cjc039_1360"
    INDEX 01 02:25:12
  TRACK 81 AUDIO
    TITLE "0:"
    INDEX 01 02:29:37
